<mxfile host="app.diagrams.net" modified="2024-06-19T12:52:14.644Z" agent="Mozilla/5.0 (Windows NT 10.0; Win64; x64) AppleWebKit/537.36 (KHTML, like Gecko) Chrome/126.0.0.0 Safari/537.36" version="24.5.5" etag="haM284jg4lWpeesJKalR" type="github">
  <diagram name="Page-1" id="ja_4jTd08ik371PWpvLK">
    <mxGraphModel>
      <root>
        <mxCell id="0" />
        <mxCell id="1" parent="0" />
      </root>
    </mxGraphModel>
  </diagram>
</mxfile>
